<?xml version="1.0" standalone="no"?>
<!DOCTYPE svg PUBLIC "-//W3C//DTD SVG 20010904//EN"
 "http://www.w3.org/TR/2001/REC-SVG-20010904/DTD/svg10.dtd">
<svg version="1.0" xmlns="http://www.w3.org/2000/svg"
 width="1952.000000pt" height="1952.000000pt" viewBox="0 0 1952.000000 1952.000000"
 preserveAspectRatio="xMidYMid meet">
<metadata>
Created by potrace 1.11, written by Peter Selinger 2001-2013
</metadata>
<g transform="translate(0.000000,1952.000000) scale(0.100000,-0.100000)"
fill="#000000" stroke="none">
<path d="M4655 16071 c-45 -21 -90 -66 -130 -130 -59 -95 -113 -215 -346 -770
-38 -90 -76 -178 -83 -195 -14 -30 -262 -613 -381 -896 -32 -74 -68 -159 -81
-188 -13 -29 -24 -55 -24 -58 0 -3 -9 -24 -19 -47 -18 -40 -250 -582 -306
-717 -15 -36 -35 -83 -45 -105 -10 -22 -76 -175 -145 -340 -70 -165 -140 -329
-155 -365 -15 -36 -58 -137 -95 -225 -37 -88 -78 -183 -91 -212 -13 -28 -24
-55 -24 -58 0 -3 -9 -25 -19 -48 -10 -23 -31 -71 -46 -107 -15 -36 -33 -78
-40 -95 -15 -33 -130 -304 -193 -455 -22 -52 -77 -183 -122 -290 -142 -337
-341 -812 -377 -900 -19 -47 -41 -98 -48 -115 -7 -16 -34 -82 -60 -145 -26
-63 -55 -133 -65 -155 -10 -22 -61 -146 -114 -275 -54 -129 -103 -248 -111
-265 -7 -16 -23 -55 -35 -85 -12 -30 -29 -70 -37 -89 -21 -48 -229 -550 -265
-641 -16 -41 -36 -88 -43 -105 -17 -39 -138 -337 -177 -435 -16 -41 -35 -88
-43 -105 -11 -25 -99 -247 -212 -535 -14 -36 -29 -74 -34 -85 -16 -37 -200
-518 -261 -680 -32 -88 -71 -189 -85 -225 -14 -35 -26 -69 -28 -75 -1 -5 -6
-21 -12 -35 -17 -42 -230 -642 -247 -695 -33 -107 -47 -197 -47 -309 0 -208
64 -353 278 -626 108 -138 285 -358 308 -384 6 -6 53 -60 104 -121 52 -60 99
-115 105 -120 6 -6 52 -55 101 -110 233 -258 285 -287 505 -286 58 1 114 3
125 5 11 2 43 7 70 10 28 4 99 18 160 32 60 13 119 26 130 28 11 2 56 12 100
21 44 9 91 19 105 21 14 3 78 16 144 30 65 14 130 28 144 30 14 3 58 12 97 20
38 9 81 17 95 20 14 2 45 9 70 14 133 28 478 100 500 104 14 2 68 13 120 24
52 12 106 23 120 25 14 3 135 28 270 56 231 49 265 56 315 65 39 8 372 77 460
97 50 10 99 21 110 23 24 4 96 18 110 22 36 8 366 76 390 80 17 3 46 9 65 14
19 5 49 11 65 14 17 3 107 22 200 41 94 20 258 54 365 76 107 22 202 42 210
44 21 5 171 36 195 41 11 2 40 8 65 13 25 5 81 16 125 25 44 9 89 18 100 20
19 5 227 49 310 66 22 5 117 25 210 44 94 19 181 37 195 40 14 3 68 14 120 25
52 11 183 38 290 61 107 23 205 43 216 46 12 2 66 13 120 25 55 11 110 22 124
25 14 2 36 7 50 10 14 3 32 7 40 9 18 4 203 43 234 49 11 3 109 23 216 45 107
23 204 43 215 45 11 2 65 14 120 26 55 12 110 24 122 26 12 2 120 25 240 50
120 25 227 47 238 50 11 2 127 26 257 54 131 27 248 51 260 54 13 2 118 24
233 49 116 25 221 48 235 51 20 3 322 67 390 81 8 2 48 11 87 19 40 9 87 18
105 21 18 3 47 10 63 14 17 5 48 12 70 16 77 13 91 16 175 35 47 10 128 28
180 39 116 24 233 49 455 97 94 20 184 38 200 40 17 3 37 7 45 10 12 4 218 48
330 70 14 3 45 10 70 15 25 6 56 13 70 15 43 8 303 64 350 75 25 6 59 13 75
16 17 3 71 14 120 25 50 10 101 21 115 24 14 2 57 11 95 20 39 9 81 18 95 20
14 3 67 14 119 25 51 12 101 22 110 24 9 2 91 19 183 39 92 20 178 38 190 40
13 2 55 11 93 20 39 8 82 17 95 20 14 3 34 7 45 10 40 9 261 55 285 59 14 3
142 30 285 60 143 31 271 58 285 61 14 2 90 19 170 36 235 50 706 149 736 154
16 3 117 24 224 46 206 43 319 66 360 74 14 2 70 14 125 26 55 12 111 24 125
26 14 3 53 11 86 19 34 8 73 16 85 19 13 2 44 9 69 15 25 5 56 12 70 15 150
29 765 181 980 241 357 100 806 248 1026 338 247 100 256 204 37 431 -124 128
-268 220 -431 275 -87 30 -100 32 -222 52 -108 17 -321 15 -425 -5 -25 -5 -88
-14 -140 -22 -22 -3 -96 -14 -165 -25 -69 -11 -141 -22 -160 -25 -19 -3 -46
-7 -60 -9 -14 -3 -43 -7 -65 -10 -22 -3 -62 -10 -90 -15 -27 -5 -68 -12 -90
-15 -22 -3 -51 -7 -65 -9 -29 -6 -391 -66 -435 -73 -49 -7 -848 -142 -875
-147 -14 -3 -68 -12 -120 -21 -52 -9 -108 -18 -124 -21 -62 -10 -322 -55 -341
-58 -11 -2 -103 -18 -205 -35 -102 -18 -196 -34 -210 -36 -14 -2 -63 -11 -110
-19 -47 -8 -101 -17 -120 -21 -19 -3 -71 -12 -115 -20 -80 -14 -128 -22 -175
-30 -70 -11 -291 -49 -410 -70 -74 -14 -148 -27 -165 -29 -16 -3 -84 -14 -150
-26 -66 -11 -133 -22 -150 -25 -16 -3 -46 -8 -65 -11 -19 -4 -44 -8 -55 -10
-11 -2 -45 -7 -75 -13 -71 -12 -97 -17 -205 -35 -49 -9 -100 -18 -111 -20 -12
-2 -39 -7 -60 -11 -22 -3 -88 -14 -147 -25 -60 -11 -130 -22 -155 -26 -26 -3
-49 -8 -52 -9 -3 -2 -26 -6 -50 -10 -25 -3 -67 -10 -95 -15 -27 -5 -63 -12
-80 -15 -16 -3 -42 -7 -58 -10 -46 -8 -140 -24 -177 -30 -31 -5 -142 -24 -225
-40 -16 -3 -46 -8 -65 -11 -19 -2 -46 -7 -60 -10 -58 -11 -69 -13 -106 -18
-22 -4 -75 -13 -119 -21 -129 -23 -138 -25 -175 -31 -19 -2 -57 -9 -85 -14
-27 -6 -68 -12 -90 -16 -22 -3 -47 -7 -55 -9 -8 -2 -28 -6 -45 -9 -39 -6 -204
-34 -230 -40 -27 -5 -83 -14 -125 -21 -19 -3 -69 -12 -110 -20 -41 -8 -91 -17
-110 -19 -19 -3 -46 -8 -60 -10 -32 -6 -233 -41 -375 -66 -60 -10 -148 -25
-195 -34 -47 -9 -101 -18 -120 -21 -19 -3 -57 -10 -85 -15 -27 -5 -63 -12 -80
-14 -24 -4 -322 -56 -575 -101 -19 -3 -111 -19 -205 -36 -93 -16 -181 -32
-195 -34 -14 -3 -41 -8 -60 -11 -19 -3 -98 -17 -175 -31 -77 -13 -149 -26
-160 -28 -11 -1 -33 -5 -50 -8 -16 -3 -70 -13 -120 -21 -49 -9 -101 -18 -115
-21 -13 -2 -42 -7 -65 -10 -22 -3 -47 -8 -55 -10 -8 -2 -28 -7 -45 -9 -74 -13
-213 -37 -235 -41 -14 -3 -52 -10 -85 -15 -73 -12 -98 -16 -200 -35 -44 -8
-97 -17 -119 -21 -21 -3 -48 -8 -60 -10 -11 -2 -34 -7 -51 -9 -16 -3 -79 -14
-140 -25 -60 -10 -126 -22 -145 -25 -19 -3 -42 -8 -50 -10 -8 -2 -31 -6 -50
-9 -19 -3 -73 -12 -120 -21 -81 -14 -107 -19 -175 -30 -16 -3 -41 -7 -55 -10
-14 -3 -45 -8 -70 -11 -25 -3 -47 -8 -50 -9 -3 -2 -24 -6 -46 -9 -22 -4 -51
-9 -64 -11 -14 -3 -41 -8 -60 -11 -19 -3 -46 -7 -60 -10 -14 -2 -77 -13 -140
-24 -63 -11 -124 -22 -135 -24 -11 -2 -40 -7 -65 -12 -25 -4 -47 -8 -50 -9 -3
0 -27 -4 -53 -9 -27 -4 -59 -9 -70 -12 -12 -2 -47 -8 -77 -14 -30 -5 -68 -12
-85 -15 -16 -3 -41 -8 -55 -10 -32 -5 -197 -33 -230 -40 -13 -2 -42 -7 -65
-10 -22 -3 -47 -8 -55 -10 -12 -4 -160 -30 -275 -49 -11 -2 -36 -7 -55 -10
-43 -8 -133 -24 -180 -31 -39 -6 -134 -23 -166 -29 -12 -2 -37 -7 -55 -10 -19
-3 -47 -8 -64 -11 -53 -10 -139 -24 -179 -31 -21 -3 -48 -8 -60 -10 -20 -4
-44 -8 -111 -19 -148 -24 -335 -56 -355 -60 -13 -3 -42 -7 -65 -10 -22 -3 -65
-10 -95 -15 -30 -5 -71 -12 -90 -15 -19 -3 -42 -8 -50 -10 -8 -2 -42 -7 -75
-11 -33 -3 -63 -8 -66 -10 -3 -1 -28 -6 -55 -10 -27 -3 -58 -8 -69 -10 -30 -6
-186 -5 -215 1 -14 2 -36 7 -49 10 -137 27 -272 122 -346 245 -91 151 -109
332 -54 551 11 46 24 100 29 119 22 97 111 394 165 555 64 189 117 343 124
360 5 11 18 45 29 75 39 106 184 485 197 515 8 17 44 107 81 200 108 272 263
658 274 680 5 11 27 65 49 120 72 183 528 1266 606 1440 8 17 60 136 115 265
175 403 331 763 355 815 12 28 91 210 175 405 84 195 158 369 165 385 84 189
475 1128 580 1395 31 80 63 159 70 175 15 33 171 439 212 550 14 39 31 84 38
100 7 17 36 95 65 175 29 80 90 242 135 360 117 305 128 341 131 443 3 67 -1
100 -15 136 -56 147 -204 279 -579 515 -85 53 -155 96 -157 96 -2 0 -41 23
-87 51 -240 147 -381 192 -473 150z"/>
</g>
</svg>
